<?xml version="1.0" standalone="no"?>
<!DOCTYPE svg PUBLIC "-//W3C//DTD SVG 20010904//EN"
 "http://www.w3.org/TR/2001/REC-SVG-20010904/DTD/svg10.dtd">
<svg version="1.0" xmlns="http://www.w3.org/2000/svg"
 width="521.000000pt" height="521.000000pt" viewBox="0 0 521.000000 521.000000"
 preserveAspectRatio="xMidYMid meet">
<metadata>
Created by potrace 1.14, written by Peter Selinger 2001-2017
</metadata>
<g transform="translate(0.000000,521.000000) scale(0.100000,-0.100000)"
fill="#000000" stroke="none">
<path d="M1135 5164 c-482 -85 -886 -434 -1040 -897 -67 -205 -65 -143 -65
-1667 0 -1524 -2 -1462 65 -1667 111 -333 359 -619 678 -779 38 -20 115 -50
170 -69 205 -67 143 -65 1667 -65 1524 0 1462 -2 1667 65 405 134 735 471 857
875 58 193 56 142 56 1640 0 1524 2 1462 -65 1667 -134 405 -471 735 -875 857
-193 58 -140 56 -1649 55 -1144 -1 -1400 -3 -1466 -15z m2821 -525 c372 -51
647 -330 694 -700 14 -114 14 -2564 0 -2678 -42 -333 -267 -591 -595 -684
l-80 -22 -1365 0 -1365 0 -80 22 c-284 80 -499 295 -577 578 l-23 80 -3 1300
c-2 873 0 1330 7 1392 43 373 319 660 686 712 92 13 2607 13 2701 0z"/>
<path d="M2300 4180 l-52 -70 -159 0 c-87 0 -159 -2 -159 -4 0 -2 29 -69 65
-148 l64 -143 529 -3 530 -2 62 137 c34 76 64 144 67 151 4 9 -31 12 -155 12
l-160 0 -52 70 -52 70 -238 0 -238 0 -52 -70z"/>
<path d="M1477 3943 c-4 -3 -7 -602 -7 -1330 l0 -1323 1118 2 1117 3 0 1325 0
1325 -169 0 -168 0 -67 -150 -68 -150 -643 0 -644 0 -69 153 -70 152 -162 0
c-89 0 -165 -3 -168 -7z"/>
</g>
</svg>
